/* XPM */
static char * icon_ultra_deep_field_xpm[] = {
"32 32 682 2",
"  	c None",
". 	c #261F13",
"+ 	c #2A2712",
"@ 	c #242313",
"# 	c #2B200B",
"$ 	c #24240F",
"% 	c #272712",
"& 	c #27241B",
"* 	c #302810",
"= 	c #302714",
"- 	c #272815",
"; 	c #2B2614",
"> 	c #2F2810",
", 	c #2D2C16",
"' 	c #29290E",
") 	c #24220D",
"! 	c #241D0C",
"~ 	c #242515",
"{ 	c #292515",
"] 	c #2E2B16",
"^ 	c #2C2B18",
"/ 	c #383820",
"( 	c #362F18",
"_ 	c #302A13",
": 	c #342C12",
"< 	c #413519",
"[ 	c #3B3613",
"} 	c #3F351B",
"| 	c #413A11",
"1 	c #3A3816",
"2 	c #2F3018",
"3 	c #282513",
"4 	c #242212",
"5 	c #282613",
"6 	c #2A2D1E",
"7 	c #302B18",
"8 	c #333017",
"9 	c #3C361C",
"0 	c #423F1A",
"a 	c #4C3E24",
"b 	c #4F4219",
"c 	c #4F4215",
"d 	c #604B1C",
"e 	c #524818",
"f 	c #534420",
"g 	c #4D401D",
"h 	c #595318",
"i 	c #50511A",
"j 	c #302A17",
"k 	c #2F2611",
"l 	c #2C291B",
"m 	c #2B281A",
"n 	c #2F2F18",
"o 	c #383615",
"p 	c #4B491C",
"q 	c #4F4C1F",
"r 	c #5A4F21",
"s 	c #685425",
"t 	c #766333",
"u 	c #826728",
"v 	c #917C42",
"w 	c #967D3F",
"x 	c #7C632C",
"y 	c #625217",
"z 	c #766623",
"A 	c #6F6945",
"B 	c #493C1A",
"C 	c #35290F",
"D 	c #242613",
"E 	c #2B2817",
"F 	c #2B2210",
"G 	c #2C260E",
"H 	c #3A3E19",
"I 	c #4D481B",
"J 	c #58531E",
"K 	c #695C26",
"L 	c #766225",
"M 	c #83692A",
"N 	c #906F2E",
"O 	c #967424",
"P 	c #AF9668",
"Q 	c #BBA06A",
"R 	c #B99D72",
"S 	c #8A6F26",
"T 	c #816320",
"U 	c #908372",
"V 	c #655524",
"W 	c #443B18",
"X 	c #2C2914",
"Y 	c #2B2718",
"Z 	c #2B2919",
"` 	c #222810",
" .	c #29270F",
"..	c #413D15",
"+.	c #4E461C",
"@.	c #5C501B",
"#.	c #786322",
"$.	c #977938",
"%.	c #977D36",
"&.	c #9E7C3B",
"*.	c #937019",
"=.	c #8E6B17",
"-.	c #92721F",
";.	c #9B8348",
">.	c #A28640",
",.	c #876B28",
"'.	c #876C2D",
").	c #7B6A32",
"!.	c #5A5323",
"~.	c #37360D",
"{.	c #2E2A19",
"].	c #2A2A1E",
"^.	c #272813",
"/.	c #242516",
"(.	c #1D3115",
"_.	c #2A2B0D",
":.	c #423C15",
"<.	c #594B1A",
"[.	c #6C5B1A",
"}.	c #88732F",
"|.	c #987528",
"1.	c #946A14",
"2.	c #9F740C",
"3.	c #A87922",
"4.	c #AF872A",
"5.	c #AA7E27",
"6.	c #97762F",
"7.	c #987D38",
"8.	c #998160",
"9.	c #856826",
"0.	c #8D7740",
"a.	c #6E622E",
"b.	c #493E15",
"c.	c #313012",
"d.	c #292719",
"e.	c #2A200B",
"f.	c #29361D",
"g.	c #182514",
"h.	c #292911",
"i.	c #413514",
"j.	c #594D1D",
"k.	c #786121",
"l.	c #8B6F2C",
"m.	c #9D7829",
"n.	c #9F7317",
"o.	c #B38622",
"p.	c #BF9132",
"q.	c #C89D44",
"r.	c #D5AF6B",
"s.	c #D7AF82",
"t.	c #C8A376",
"u.	c #A0802F",
"v.	c #8E6D23",
"w.	c #866422",
"x.	c #90722B",
"y.	c #6B5822",
"z.	c #605528",
"A.	c #3B3716",
"B.	c #262911",
"C.	c #28231B",
"D.	c #222B13",
"E.	c #262B19",
"F.	c #1D250D",
"G.	c #1E270D",
"H.	c #373210",
"I.	c #4B4012",
"J.	c #5E4C11",
"K.	c #806419",
"L.	c #937125",
"M.	c #9D6F15",
"N.	c #B07F21",
"O.	c #BB8B27",
"P.	c #C79533",
"Q.	c #D19E40",
"R.	c #D8A435",
"S.	c #DFB153",
"T.	c #E2BF9A",
"U.	c #B98F3D",
"V.	c #96711E",
"W.	c #8B671A",
"X.	c #917129",
"Y.	c #725816",
"Z.	c #5E5524",
"`.	c #3E3918",
" +	c #2B2711",
".+	c #272C1A",
"++	c #2B3321",
"@+	c #242414",
"#+	c #232412",
"$+	c #33351F",
"%+	c #424116",
"&+	c #53420D",
"*+	c #745F1E",
"=+	c #8A6B16",
"-+	c #8C670E",
";+	c #A57D21",
">+	c #B98C31",
",+	c #CA993C",
"'+	c #D0972B",
")+	c #CE932D",
"!+	c #D59A1B",
"~+	c #E0AD3C",
"{+	c #EAC797",
"]+	c #D6AF7B",
"^+	c #A98042",
"/+	c #916E24",
"(+	c #8F6F28",
"_+	c #755E18",
":+	c #63511A",
"<+	c #413413",
"[+	c #312F13",
"}+	c #2F2C14",
"|+	c #33381F",
"1+	c #222905",
"2+	c #31350F",
"3+	c #413C0F",
"4+	c #6A561A",
"5+	c #957D43",
"6+	c #8E6615",
"7+	c #A07522",
"8+	c #BB9048",
"9+	c #CA9931",
"0+	c #D1952A",
"a+	c #D6961B",
"b+	c #DCA029",
"c+	c #E1AA3F",
"d+	c #E3B04C",
"e+	c #ECC288",
"f+	c #DDB26B",
"g+	c #B18843",
"h+	c #9B7633",
"i+	c #9B7B29",
"j+	c #816115",
"k+	c #6A5A33",
"l+	c #3B361E",
"m+	c #373311",
"n+	c #4E5033",
"o+	c #304228",
"p+	c #22270D",
"q+	c #373B0D",
"r+	c #514B10",
"s+	c #8C7535",
"t+	c #977125",
"u+	c #996C1C",
"v+	c #B38635",
"w+	c #C8995A",
"x+	c #D69B2A",
"y+	c #DFA326",
"z+	c #EFBB64",
"A+	c #F8D1B9",
"B+	c #FAD5D1",
"C+	c #F4C9A5",
"D+	c #EFC69E",
"E+	c #E0B56C",
"F+	c #B58538",
"G+	c #A77E38",
"H+	c #AD8838",
"I+	c #937A50",
"J+	c #6F6340",
"K+	c #38320D",
"L+	c #373416",
"M+	c #474C2F",
"N+	c #272A15",
"O+	c #232713",
"P+	c #363611",
"Q+	c #424015",
"R+	c #5D4C15",
"S+	c #937833",
"T+	c #9E7621",
"U+	c #AC822F",
"V+	c #BC8B35",
"W+	c #D39939",
"X+	c #E3A72B",
"Y+	c #F7C99C",
"Z+	c #FED6A0",
"`+	c #FFD691",
" @	c #FFD98F",
".@	c #FED9C0",
"+@	c #F5CFBB",
"@@	c #E2B781",
"#@	c #C39660",
"$@	c #B08958",
"%@	c #B18E47",
"&@	c #977E49",
"*@	c #635221",
"=@	c #392F12",
"-@	c #39331B",
";@	c #2D3115",
">@	c #1F2814",
",@	c #282609",
"'@	c #2B2C1A",
")@	c #343614",
"!@	c #443711",
"~@	c #6E5318",
"{@	c #A07D2E",
"]@	c #B2853B",
"^@	c #C09446",
"/@	c #C69129",
"(@	c #DFA42D",
"_@	c #F6C57F",
":@	c #FFE2D3",
"<@	c #FFE8B1",
"[@	c #FFF5BD",
"}@	c #FFEFA3",
"|@	c #FFE1B8",
"1@	c #F5CBAD",
"2@	c #E4B772",
"3@	c #C99859",
"4@	c #B88B48",
"5@	c #B18D3B",
"6@	c #887130",
"7@	c #57421A",
"8@	c #3B3214",
"9@	c #3D3414",
"0@	c #353117",
"a@	c #252610",
"b@	c #202A13",
"c@	c #231D0E",
"d@	c #2D240E",
"e@	c #372A15",
"f@	c #3C3614",
"g@	c #483613",
"h@	c #795923",
"i@	c #B18A4A",
"j@	c #C79E65",
"k@	c #C69547",
"l@	c #D69D40",
"m@	c #EEB656",
"n@	c #FED39B",
"o@	c #FFEDD2",
"p@	c #FFFFEF",
"q@	c #FFFFEB",
"r@	c #FFEFAA",
"s@	c #FFDCB6",
"t@	c #EFBE75",
"u@	c #E0AC4E",
"v@	c #CC9950",
"w@	c #CCA475",
"x@	c #B9954E",
"y@	c #836C31",
"z@	c #594116",
"A@	c #413512",
"B@	c #3B2F15",
"C@	c #3D3920",
"D@	c #312C19",
"E@	c #241C0B",
"F@	c #24210D",
"G@	c #2A2211",
"H@	c #3B3016",
"I@	c #3E3616",
"J@	c #4B3813",
"K@	c #7E5828",
"L@	c #B59256",
"M@	c #CDA683",
"N@	c #C49031",
"O@	c #E4B578",
"P@	c #F4C27E",
"Q@	c #FFE3BD",
"R@	c #FFF6BD",
"S@	c #FFFFEC",
"T@	c #FFF8C4",
"U@	c #FFE09E",
"V@	c #F8CF9F",
"W@	c #E1A638",
"X@	c #DAA855",
"Y@	c #CD9D59",
"Z@	c #C69F68",
"`@	c #A98A49",
" #	c #715A1D",
".#	c #52441B",
"+#	c #38300E",
"@#	c #37311B",
"##	c #3F3C25",
"$#	c #25230F",
"%#	c #372B17",
"&#	c #443B1B",
"*#	c #433114",
"=#	c #4B3913",
"-#	c #7A591E",
";#	c #B58D43",
">#	c #C39B67",
",#	c #D4AA76",
"'#	c #E8B97D",
")#	c #EFC071",
"!#	c #FEE2BF",
"~#	c #FFE792",
"{#	c #FFE693",
"]#	c #FFE093",
"^#	c #FDD8BE",
"/#	c #E9B151",
"(#	c #D99B31",
"_#	c #DEB57C",
":#	c #CB9E5B",
"<#	c #BB9856",
"[#	c #8C6B22",
"}#	c #7E714B",
"|#	c #4C3D17",
"1#	c #34281C",
"2#	c #352E19",
"3#	c #2D200F",
"4#	c #242214",
"5#	c #3F4022",
"6#	c #3D3214",
"7#	c #453610",
"8#	c #755720",
"9#	c #AF873F",
"0#	c #C4A275",
"a#	c #D9AE7B",
"b#	c #E3B369",
"c#	c #E7B463",
"d#	c #F7CC99",
"e#	c #FEDCAB",
"f#	c #FFDBAB",
"g#	c #FAD19A",
"h#	c #EAB352",
"i#	c #D89614",
"j#	c #D9A653",
"k#	c #D4AB76",
"l#	c #C29749",
"m#	c #B39261",
"n#	c #876E32",
"o#	c #5C501C",
"p#	c #3A311A",
"q#	c #342D14",
"r#	c #2F2A19",
"s#	c #261E16",
"t#	c #2C2F19",
"u#	c #3A3B1D",
"v#	c #393316",
"w#	c #42360D",
"x#	c #74581B",
"y#	c #A6823B",
"z#	c #BB924D",
"A#	c #CF9D50",
"B#	c #DCAD60",
"C#	c #DFAB4B",
"D#	c #E8B668",
"E#	c #EEBF82",
"F#	c #EEBA5A",
"G#	c #E4A729",
"H#	c #D59623",
"I#	c #D49B38",
"J#	c #DDB48C",
"K#	c #CEA570",
"L#	c #BC964E",
"M#	c #967A3D",
"N#	c #665626",
"O#	c #413A12",
"P#	c #392E10",
"Q#	c #302C13",
"R#	c #2D2511",
"S#	c #2D2811",
"T#	c #39391B",
"U#	c #48482A",
"V#	c #3D331A",
"W#	c #4A350E",
"X#	c #71571A",
"Y#	c #A37C3E",
"Z#	c #AA832F",
"`#	c #CAA27D",
" $	c #D3A56B",
".$	c #D29E39",
"+$	c #E1AE40",
"@$	c #E2AA31",
"#$	c #DDA322",
"$$	c #D4981A",
"%$	c #D39931",
"&$	c #D7A652",
"*$	c #D0A75B",
"=$	c #C19752",
"-$	c #9E7D32",
";$	c #6D5717",
">$	c #473C11",
",$	c #393011",
"'$	c #372C12",
")$	c #2B271A",
"!$	c #232011",
"~$	c #2B2D12",
"{$	c #34361B",
"]$	c #3C3A1B",
"^$	c #3D3819",
"/$	c #4A370F",
"($	c #6B5318",
"_$	c #A27E2B",
":$	c #A57C28",
"<$	c #C5A073",
"[$	c #D1A97B",
"}$	c #CD9D56",
"|$	c #D4A55D",
"1$	c #D9A547",
"2$	c #D9A43D",
"3$	c #DAA548",
"4$	c #DBAF7C",
"5$	c #D8B7A3",
"6$	c #BD923F",
"7$	c #A07C29",
"8$	c #826A2E",
"9$	c #564A19",
"0$	c #3B3316",
"a$	c #332E14",
"b$	c #322E17",
"c$	c #282413",
"d$	c #252215",
"e$	c #303119",
"f$	c #353211",
"g$	c #45441D",
"h$	c #4A3C18",
"i$	c #695220",
"j$	c #A88B61",
"k$	c #B08B4F",
"l$	c #B38A36",
"m$	c #C8A25F",
"n$	c #CBA26C",
"o$	c #D0A56B",
"p$	c #D9AD72",
"q$	c #DBB178",
"r$	c #D1A451",
"s$	c #C49A4E",
"t$	c #B38C36",
"u$	c #997223",
"v$	c #886D24",
"w$	c #675417",
"x$	c #443A1D",
"y$	c #342D19",
"z$	c #2D2A19",
"A$	c #322717",
"B$	c #27200F",
"C$	c #24280E",
"D$	c #322E15",
"E$	c #3F411F",
"F$	c #49391B",
"G$	c #635320",
"H$	c #A28756",
"I$	c #BA9964",
"J$	c #AC8333",
"K$	c #B78C3C",
"L$	c #BA9041",
"M$	c #C49E58",
"N$	c #CAA461",
"O$	c #C49C3D",
"P$	c #B48B22",
"Q$	c #A87E29",
"R$	c #956F20",
"S$	c #836826",
"T$	c #695223",
"U$	c #433A1E",
"V$	c #3C3115",
"W$	c #382C17",
"X$	c #312914",
"Y$	c #302916",
"Z$	c #392E2F",
"`$	c #4B4659",
" %	c #3D3333",
".%	c #261B14",
"+%	c #25210C",
"@%	c #2A2E12",
"#%	c #3A351E",
"$%	c #414321",
"%%	c #56502A",
"&%	c #7B6327",
"*%	c #A18120",
"=%	c #B18930",
"-%	c #AB843D",
";%	c #A27923",
">%	c #B38C56",
",%	c #B28C3D",
"'%	c #AF832C",
")%	c #A57E2D",
"!%	c #967221",
"~%	c #80652E",
"{%	c #5E4E20",
"]%	c #483512",
"^%	c #3C3413",
"/%	c #362E13",
"(%	c #342E10",
"_%	c #343017",
":%	c #534C5E",
"<%	c #C0B7E4",
"[%	c #C5BBF5",
"}%	c #666786",
"|%	c #28291A",
"1%	c #26260E",
"2%	c #2A3416",
"3%	c #433B1D",
"4%	c #616043",
"5%	c #645223",
"6%	c #795A14",
"7%	c #95722E",
"8%	c #9F7F39",
"9%	c #987839",
"0%	c #9D7C38",
"a%	c #A07F43",
"b%	c #977321",
"c%	c #856A21",
"d%	c #6D541C",
"e%	c #544316",
"f%	c #413513",
"g%	c #48361A",
"h%	c #3F3511",
"i%	c #393A28",
"j%	c #313417",
"k%	c #2D3428",
"l%	c #8790D8",
"m%	c #C7C6EC",
"n%	c #60606C",
"o%	c #27292C",
"p%	c #242914",
"q%	c #3A3115",
"r%	c #615C36",
"s%	c #5B4B26",
"t%	c #5D4418",
"u%	c #684D11",
"v%	c #785A16",
"w%	c #7E6A23",
"x%	c #7C6224",
"y%	c #7C601C",
"z%	c #775916",
"A%	c #624B16",
"B%	c #4C3C0E",
"C%	c #473915",
"D%	c #47401B",
"E%	c #3E391C",
"F%	c #2C2A16",
"G%	c #27210F",
"H%	c #1F250F",
"I%	c #333023",
"J%	c #372C26",
"K%	c #262416",
"L%	c #241C18",
"M%	c #322D11",
"N%	c #524F30",
"O%	c #5F582F",
"P%	c #5D5A27",
"Q%	c #5C4E1E",
"R%	c #5B4B0D",
"S%	c #5F4E17",
"T%	c #644F17",
"U%	c #6D5519",
"V%	c #6A5820",
"W%	c #63552A",
"X%	c #574D27",
"Y%	c #4C4319",
"Z%	c #3E3F18",
"`%	c #312E12",
" &	c #222512",
".&	c #242117",
"+&	c #242015",
"@&	c #23240F",
"#&	c #3F3A1A",
"$&	c #46401B",
"%&	c #504F21",
"&&	c #5B501F",
"*&	c #595A2A",
"=&	c #595330",
"-&	c #625C37",
";&	c #61562A",
">&	c #574A1B",
",&	c #434228",
"'&	c #392F1A",
")&	c #2A2918",
"!&	c #313324",
"~&	c #343629",
"{&	c #28271D",
"]&	c #292217",
"^&	c #27270D",
"/&	c #2A2614",
"(&	c #2B2A19",
"_&	c #2D2C14",
":&	c #454222",
"<&	c #403917",
"[&	c #3D3D2A",
"}&	c #3E3B19",
"|&	c #342F14",
"1&	c #2C260D",
"2&	c #241D14",
"3&	c #283B26",
"4&	c #6D8282",
"5&	c #A1B5C0",
"6&	c #475B4F",
"7&	c #272210",
"8&	c #291B0E",
"9&	c #202A1A",
"                          . + @   # $                           ",
"                      % &   * = - ; > , '   )   !               ",
"                ~ { ] ^ / ( _ : < [ } | 1 2 ) 3 4 5             ",
"                6 7 8 9 0 a b c d e f g h i j k l m             ",
"                n o p q r s t u v w x y z A B C D E F           ",
"              G H I J K L M N O P Q R S T U V W X Y Z           ",
"          `    ...+.@.#.$.%.&.*.=.-.;.>.,.'.).!.~.{.].    ^./.  ",
"          (.  _.:.<.[.}.|.1.2.3.4.5.6.7.8.9.0.a.b.c.d.e.  f.    ",
"        g.  h.i.j.k.l.m.n.o.p.q.r.s.t.u.v.w.x.y.z.A.B.C.D.E.    ",
"        F.G.H.I.J.K.L.M.N.O.P.Q.R.S.T.U.V.W.X.Y.Z.`. +.+++@+    ",
"        #+$+%+&+*+=+-+;+>+,+'+)+!+~+{+]+^+/+(+_+:+<+[+}+|+      ",
"        1+2+3+4+5+6+7+8+9+0+a+b+c+d+e+f+g+h+i+j+k+l+m+n+o+      ",
"      p+h.q+r+s+t+u+v+w+x+y+z+A+B+C+D+E+F+G+H+I+J+K+L+M+N+  O+  ",
"      D.P+Q+R+S+T+U+V+W+X+Y+Z+`+ @.@+@@@#@$@%@&@*@=@-@;@  >@,@  ",
"      '@)@!@~@{@]@^@/@(@_@:@<@[@}@|@1@2@3@4@5@6@7@8@9@0@a@b@    ",
"  c@d@e@f@g@h@i@j@k@l@m@n@o@p@q@r@s@t@u@v@w@x@y@z@A@B@C@D@      ",
"E@F@G@H@I@J@K@L@M@N@O@P@Q@R@S@T@U@V@W@X@Y@Z@`@ #.#+#@###$#      ",
"    %#&#*#=#-#;#>#,#'#)#!#~#{#]#^#/#(#_#:#<#[#}#|#1#2#3#        ",
"  4#0@5#6#7#8#9#0#a#b#c#d#e#f#g#h#i#j#k#l#m#n#o#p#q#r#s#        ",
"    t#u#v#w#x#y#z#A#B#C#D#E#F#G#H#I#J#K#L#M#N#O#P#Q#R#          ",
"  S#T#U#V#W#X#Y#Z#`# $.$+$@$#$$$%$&$*$=$-$;$>$,$'$)$            ",
"!$~${$]$^$/$($_$:$<$[$}$|$1$2$3$4$5$6$7$8$9$0$a$b$c$            ",
"  d$e$f$g$h$i$j$k$l$m$n$o$p$q$r$s$t$u$v$w$x$y$z$A$B$            ",
"    C$D$E$F$G$H$I$J$K$L$M$N$O$P$Q$R$S$T$U$V$W$X$Y$Z$`$ %.%      ",
"    +%@%#%$%%%&%*%=%-%;%>%,%'%)%!%~%{%]%^%/%(%_%:%<%[%}%|%      ",
"      1%2%3%4%5%6%7%8%9%0%a%b%c%d%e%f%g%h%i%j%k%l%m%n%o%        ",
"        p%q%r%s%t%u%v%w%x%y%z%A%B%C%D%E%(%F%G%H%I%J%K%L%        ",
"          M%N%O%P%Q%R%S%T%U%V%W%X%Y%Z%`% &    .&+&              ",
"          @&`%#&$&%&&&*&=&-&;&>&,&'&)&          !&~&{&          ",
"            ]&^&/&(&_&:&<&[&}&|&1&  2&        3&4&5&6&          ",
"                        7&  8&    9&                            ",
"                                                                "};
